 <svg width="100%" height="100%" id="svg" viewBox="0 0 1440 390" xmlns="http://www.w3.org/2000/svg" class="transition duration-300 ease-in-out delay-150"><defs><linearGradient id="gradient" x1="56%" y1="0%" x2="54%" y2="90%"><stop offset="5%" stop-color="#698f4f"></stop><stop offset="95%" stop-color="#2b463c"></stop></linearGradient></defs><path d="M 0,400 L 0,100 C 50.73926485743729,81.58639642734455 101.47852971487458,63.172792854689106 179,67 C 256.5214702851254,70.8272071453109 360.8251459979389,96.89522500858811 435,113 C 509.1748540020611,129.1047749914119 553.22088629337,135.2463071109584 617,121 C 680.77911370663,106.75369288904157 764.2913088285812,72.11954654757815 840,66 C 915.7086911714188,59.880453452421854 983.613878392305,82.27550669872896 1042,94 C 1100.386121607695,105.72449330127104 1149.2531776021983,106.778426657506 1214,106 C 1278.7468223978017,105.221573342494 1359.3734111989008,102.610786671247 1440,100 L 1440,400 L 0,400 Z" stroke="none" stroke-width="0" fill="url(#gradient)" fill-opacity="0.53" class="transition-all duration-300 ease-in-out delay-150 path-0"></path><defs><linearGradient id="gradient" x1="56%" y1="0%" x2="44%" y2="100%"><stop offset="5%" stop-color="#698f4f"></stop><stop offset="95%" stop-color="#2b463c"></stop></linearGradient></defs><path d="M 0,400 L 0,233 C 60.574373067674344,216.83854345585712 121.14874613534869,200.6770869117142 199,200 C 276.8512538646513,199.3229130882858 371.9793885262796,214.13019580900033 435,214 C 498.0206114737204,213.86980419099967 528.9336997595327,198.80212985228445 596,190 C 663.0663002404673,181.19787014771555 766.2858124355892,178.66128478186187 850,194 C 933.7141875644108,209.33871521813813 997.9230504981108,242.55273102026797 1062,249 C 1126.0769495018892,255.44726897973203 1190.0219855719683,235.1277911370663 1253,228 C 1315.9780144280317,220.8722088629337 1377.9890072140158,226.93610443146684 1440,233 L 1440,400 L 0,400 Z" stroke="none" stroke-width="0" fill="url(#gradient)" fill-opacity="1" class="transition-all duration-300 ease-in-out delay-150 path-1"></path></svg>